<mxfile host="app.diagrams.net" agent="Mozilla/5.0 (Windows NT 10.0; Win64; x64) AppleWebKit/537.36 (KHTML, like Gecko) Chrome/127.0.0.0 Safari/537.36 Edg/127.0.0.0" version="24.7.7">
  <diagram id="brzT2Af7oqkx_6fArOdX" name="Page-2">
    <mxGraphModel grid="1" page="1" gridSize="10" guides="1" tooltips="1" connect="1" arrows="1" fold="1" pageScale="1" pageWidth="827" pageHeight="1169" math="0" shadow="0">
      <root>
        <mxCell id="0" />
        <mxCell id="1" parent="0" />
        <mxCell id="Al74vmx-wj5vo0OJbYfl-20" value="address" style="swimlane;html=1;fontStyle=0;childLayout=stackLayout;horizontal=1;startSize=26;fillColor=#e0e0e0;horizontalStack=0;resizeParent=1;resizeLast=0;collapsible=1;marginBottom=0;swimlaneFillColor=#ffffff;align=center;rounded=0;shadow=0;comic=0;labelBackgroundColor=none;strokeWidth=1;fontFamily=Verdana;fontSize=14;movable=1;resizable=1;rotatable=1;deletable=1;editable=1;locked=0;connectable=1;" vertex="1" parent="1">
          <mxGeometry x="365" y="40" width="160" height="190" as="geometry" />
        </mxCell>
        <mxCell id="Al74vmx-wj5vo0OJbYfl-23" value="address_id" style="shape=partialRectangle;top=0;left=0;right=0;bottom=1;html=1;align=left;verticalAlign=middle;fillColor=none;spacingLeft=60;spacingRight=4;whiteSpace=wrap;overflow=hidden;rotatable=0;points=[[0,0.5],[1,0.5]];portConstraint=eastwest;dropTarget=0;fontStyle=5;" vertex="1" parent="Al74vmx-wj5vo0OJbYfl-20">
          <mxGeometry y="26" width="160" height="30" as="geometry" />
        </mxCell>
        <mxCell id="Al74vmx-wj5vo0OJbYfl-24" value="PK" style="shape=partialRectangle;fontStyle=1;top=0;left=0;bottom=0;html=1;fillColor=none;align=left;verticalAlign=middle;spacingLeft=4;spacingRight=4;whiteSpace=wrap;overflow=hidden;rotatable=0;points=[];portConstraint=eastwest;part=1;" connectable="0" vertex="1" parent="Al74vmx-wj5vo0OJbYfl-23">
          <mxGeometry width="56" height="30" as="geometry" />
        </mxCell>
        <mxCell id="Al74vmx-wj5vo0OJbYfl-25" value="city" style="shape=partialRectangle;top=0;left=0;right=0;bottom=0;html=1;align=left;verticalAlign=top;fillColor=none;spacingLeft=60;spacingRight=4;whiteSpace=wrap;overflow=hidden;rotatable=0;points=[[0,0.5],[1,0.5]];portConstraint=eastwest;dropTarget=0;" vertex="1" parent="Al74vmx-wj5vo0OJbYfl-20">
          <mxGeometry y="56" width="160" height="26" as="geometry" />
        </mxCell>
        <mxCell id="Al74vmx-wj5vo0OJbYfl-26" value="" style="shape=partialRectangle;top=0;left=0;bottom=0;html=1;fillColor=none;align=left;verticalAlign=top;spacingLeft=4;spacingRight=4;whiteSpace=wrap;overflow=hidden;rotatable=0;points=[];portConstraint=eastwest;part=1;" connectable="0" vertex="1" parent="Al74vmx-wj5vo0OJbYfl-25">
          <mxGeometry width="56" height="26" as="geometry" />
        </mxCell>
        <mxCell id="Al74vmx-wj5vo0OJbYfl-29" value="county" style="shape=partialRectangle;top=0;left=0;right=0;bottom=0;html=1;align=left;verticalAlign=top;fillColor=none;spacingLeft=60;spacingRight=4;whiteSpace=wrap;overflow=hidden;rotatable=0;points=[[0,0.5],[1,0.5]];portConstraint=eastwest;dropTarget=0;" vertex="1" parent="Al74vmx-wj5vo0OJbYfl-20">
          <mxGeometry y="82" width="160" height="26" as="geometry" />
        </mxCell>
        <mxCell id="Al74vmx-wj5vo0OJbYfl-30" value="" style="shape=partialRectangle;top=0;left=0;bottom=0;html=1;fillColor=none;align=left;verticalAlign=top;spacingLeft=4;spacingRight=4;whiteSpace=wrap;overflow=hidden;rotatable=0;points=[];portConstraint=eastwest;part=1;" connectable="0" vertex="1" parent="Al74vmx-wj5vo0OJbYfl-29">
          <mxGeometry width="56" height="26" as="geometry" />
        </mxCell>
        <mxCell id="Al74vmx-wj5vo0OJbYfl-27" value="address_line_1" style="shape=partialRectangle;top=0;left=0;right=0;bottom=0;html=1;align=left;verticalAlign=top;fillColor=none;spacingLeft=60;spacingRight=4;whiteSpace=wrap;overflow=hidden;rotatable=0;points=[[0,0.5],[1,0.5]];portConstraint=eastwest;dropTarget=0;" vertex="1" parent="Al74vmx-wj5vo0OJbYfl-20">
          <mxGeometry y="108" width="160" height="26" as="geometry" />
        </mxCell>
        <mxCell id="Al74vmx-wj5vo0OJbYfl-28" value="" style="shape=partialRectangle;top=0;left=0;bottom=0;html=1;fillColor=none;align=left;verticalAlign=top;spacingLeft=4;spacingRight=4;whiteSpace=wrap;overflow=hidden;rotatable=0;points=[];portConstraint=eastwest;part=1;" connectable="0" vertex="1" parent="Al74vmx-wj5vo0OJbYfl-27">
          <mxGeometry width="56" height="26" as="geometry" />
        </mxCell>
        <mxCell id="Al74vmx-wj5vo0OJbYfl-39" value="doctor" style="swimlane;html=1;fontStyle=0;childLayout=stackLayout;horizontal=1;startSize=26;fillColor=#e0e0e0;horizontalStack=0;resizeParent=1;resizeLast=0;collapsible=1;marginBottom=0;swimlaneFillColor=#ffffff;align=center;rounded=0;shadow=0;comic=0;labelBackgroundColor=none;strokeWidth=1;fontFamily=Verdana;fontSize=14;movable=1;resizable=1;rotatable=1;deletable=1;editable=1;locked=0;connectable=1;" vertex="1" parent="1">
          <mxGeometry x="667" y="40" width="193" height="220" as="geometry" />
        </mxCell>
        <mxCell id="Al74vmx-wj5vo0OJbYfl-40" value="doctor_id" style="shape=partialRectangle;top=0;left=0;right=0;bottom=0;html=1;align=left;verticalAlign=middle;fillColor=none;spacingLeft=60;spacingRight=4;whiteSpace=wrap;overflow=hidden;rotatable=0;points=[[0,0.5],[1,0.5]];portConstraint=eastwest;dropTarget=0;fontStyle=5;" vertex="1" parent="Al74vmx-wj5vo0OJbYfl-39">
          <mxGeometry y="26" width="193" height="30" as="geometry" />
        </mxCell>
        <mxCell id="Al74vmx-wj5vo0OJbYfl-41" value="PK" style="shape=partialRectangle;fontStyle=1;top=0;left=0;bottom=0;html=1;fillColor=none;align=left;verticalAlign=middle;spacingLeft=4;spacingRight=4;whiteSpace=wrap;overflow=hidden;rotatable=0;points=[];portConstraint=eastwest;part=1;" connectable="0" vertex="1" parent="Al74vmx-wj5vo0OJbYfl-40">
          <mxGeometry width="56" height="30" as="geometry" />
        </mxCell>
        <mxCell id="Al74vmx-wj5vo0OJbYfl-42" value="address_id" style="shape=partialRectangle;top=0;left=0;right=0;bottom=1;html=1;align=left;verticalAlign=middle;fillColor=none;spacingLeft=60;spacingRight=4;whiteSpace=wrap;overflow=hidden;rotatable=0;points=[[0,0.5],[1,0.5]];portConstraint=eastwest;dropTarget=0;fontStyle=5;" vertex="1" parent="Al74vmx-wj5vo0OJbYfl-39">
          <mxGeometry y="56" width="193" height="30" as="geometry" />
        </mxCell>
        <mxCell id="Al74vmx-wj5vo0OJbYfl-43" value="FK" style="shape=partialRectangle;fontStyle=1;top=0;left=0;bottom=0;html=1;fillColor=none;align=left;verticalAlign=middle;spacingLeft=4;spacingRight=4;whiteSpace=wrap;overflow=hidden;rotatable=0;points=[];portConstraint=eastwest;part=1;" connectable="0" vertex="1" parent="Al74vmx-wj5vo0OJbYfl-42">
          <mxGeometry width="56" height="30" as="geometry" />
        </mxCell>
        <mxCell id="Al74vmx-wj5vo0OJbYfl-44" value="&lt;div&gt;doctor_index_number&lt;br&gt;&lt;/div&gt;" style="shape=partialRectangle;top=0;left=0;right=0;bottom=0;html=1;align=left;verticalAlign=top;fillColor=none;spacingLeft=60;spacingRight=4;whiteSpace=wrap;overflow=hidden;rotatable=0;points=[[0,0.5],[1,0.5]];portConstraint=eastwest;dropTarget=0;" vertex="1" parent="Al74vmx-wj5vo0OJbYfl-39">
          <mxGeometry y="86" width="193" height="26" as="geometry" />
        </mxCell>
        <mxCell id="Al74vmx-wj5vo0OJbYfl-45" value="" style="shape=partialRectangle;top=0;left=0;bottom=0;html=1;fillColor=none;align=left;verticalAlign=top;spacingLeft=4;spacingRight=4;whiteSpace=wrap;overflow=hidden;rotatable=0;points=[];portConstraint=eastwest;part=1;" connectable="0" vertex="1" parent="Al74vmx-wj5vo0OJbYfl-44">
          <mxGeometry width="56" height="26" as="geometry" />
        </mxCell>
        <mxCell id="Al74vmx-wj5vo0OJbYfl-46" value="name" style="shape=partialRectangle;top=0;left=0;right=0;bottom=0;html=1;align=left;verticalAlign=top;fillColor=none;spacingLeft=60;spacingRight=4;whiteSpace=wrap;overflow=hidden;rotatable=0;points=[[0,0.5],[1,0.5]];portConstraint=eastwest;dropTarget=0;" vertex="1" parent="Al74vmx-wj5vo0OJbYfl-39">
          <mxGeometry y="112" width="193" height="26" as="geometry" />
        </mxCell>
        <mxCell id="Al74vmx-wj5vo0OJbYfl-47" value="" style="shape=partialRectangle;top=0;left=0;bottom=0;html=1;fillColor=none;align=left;verticalAlign=top;spacingLeft=4;spacingRight=4;whiteSpace=wrap;overflow=hidden;rotatable=0;points=[];portConstraint=eastwest;part=1;" connectable="0" vertex="1" parent="Al74vmx-wj5vo0OJbYfl-46">
          <mxGeometry width="56" height="26" as="geometry" />
        </mxCell>
        <mxCell id="Al74vmx-wj5vo0OJbYfl-50" value="phone" style="shape=partialRectangle;top=0;left=0;right=0;bottom=0;html=1;align=left;verticalAlign=top;fillColor=none;spacingLeft=60;spacingRight=4;whiteSpace=wrap;overflow=hidden;rotatable=0;points=[[0,0.5],[1,0.5]];portConstraint=eastwest;dropTarget=0;" vertex="1" parent="Al74vmx-wj5vo0OJbYfl-39">
          <mxGeometry y="138" width="193" height="26" as="geometry" />
        </mxCell>
        <mxCell id="Al74vmx-wj5vo0OJbYfl-51" value="" style="shape=partialRectangle;top=0;left=0;bottom=0;html=1;fillColor=none;align=left;verticalAlign=top;spacingLeft=4;spacingRight=4;whiteSpace=wrap;overflow=hidden;rotatable=0;points=[];portConstraint=eastwest;part=1;" connectable="0" vertex="1" parent="Al74vmx-wj5vo0OJbYfl-50">
          <mxGeometry width="56" height="26" as="geometry" />
        </mxCell>
        <mxCell id="Al74vmx-wj5vo0OJbYfl-52" value="email" style="shape=partialRectangle;top=0;left=0;right=0;bottom=0;html=1;align=left;verticalAlign=top;fillColor=none;spacingLeft=60;spacingRight=4;whiteSpace=wrap;overflow=hidden;rotatable=0;points=[[0,0.5],[1,0.5]];portConstraint=eastwest;dropTarget=0;" vertex="1" parent="Al74vmx-wj5vo0OJbYfl-39">
          <mxGeometry y="164" width="193" height="26" as="geometry" />
        </mxCell>
        <mxCell id="Al74vmx-wj5vo0OJbYfl-53" value="" style="shape=partialRectangle;top=0;left=0;bottom=0;html=1;fillColor=none;align=left;verticalAlign=top;spacingLeft=4;spacingRight=4;whiteSpace=wrap;overflow=hidden;rotatable=0;points=[];portConstraint=eastwest;part=1;" connectable="0" vertex="1" parent="Al74vmx-wj5vo0OJbYfl-52">
          <mxGeometry width="56" height="26" as="geometry" />
        </mxCell>
        <mxCell id="Al74vmx-wj5vo0OJbYfl-56" value="note" style="shape=partialRectangle;top=0;left=0;right=0;bottom=0;html=1;align=left;verticalAlign=top;fillColor=none;spacingLeft=60;spacingRight=4;whiteSpace=wrap;overflow=hidden;rotatable=0;points=[[0,0.5],[1,0.5]];portConstraint=eastwest;dropTarget=0;" vertex="1" parent="Al74vmx-wj5vo0OJbYfl-39">
          <mxGeometry y="190" width="193" height="26" as="geometry" />
        </mxCell>
        <mxCell id="Al74vmx-wj5vo0OJbYfl-57" value="" style="shape=partialRectangle;top=0;left=0;bottom=0;html=1;fillColor=none;align=left;verticalAlign=top;spacingLeft=4;spacingRight=4;whiteSpace=wrap;overflow=hidden;rotatable=0;points=[];portConstraint=eastwest;part=1;" connectable="0" vertex="1" parent="Al74vmx-wj5vo0OJbYfl-56">
          <mxGeometry width="56" height="26" as="geometry" />
        </mxCell>
        <mxCell id="Al74vmx-wj5vo0OJbYfl-88" value="payment" style="swimlane;html=1;fontStyle=0;childLayout=stackLayout;horizontal=1;startSize=26;fillColor=#e0e0e0;horizontalStack=0;resizeParent=1;resizeLast=0;collapsible=1;marginBottom=0;swimlaneFillColor=#ffffff;align=center;rounded=0;shadow=0;comic=0;labelBackgroundColor=none;strokeWidth=1;fontFamily=Verdana;fontSize=14;movable=1;resizable=1;rotatable=1;deletable=1;editable=1;locked=0;connectable=1;" vertex="1" parent="1">
          <mxGeometry x="680" y="470" width="160" height="82" as="geometry" />
        </mxCell>
        <mxCell id="Al74vmx-wj5vo0OJbYfl-89" value="payment_id" style="shape=partialRectangle;top=0;left=0;right=0;bottom=1;html=1;align=left;verticalAlign=middle;fillColor=none;spacingLeft=60;spacingRight=4;whiteSpace=wrap;overflow=hidden;rotatable=0;points=[[0,0.5],[1,0.5]];portConstraint=eastwest;dropTarget=0;fontStyle=5;" vertex="1" parent="Al74vmx-wj5vo0OJbYfl-88">
          <mxGeometry y="26" width="160" height="30" as="geometry" />
        </mxCell>
        <mxCell id="Al74vmx-wj5vo0OJbYfl-90" value="PK" style="shape=partialRectangle;fontStyle=1;top=0;left=0;bottom=0;html=1;fillColor=none;align=left;verticalAlign=middle;spacingLeft=4;spacingRight=4;whiteSpace=wrap;overflow=hidden;rotatable=0;points=[];portConstraint=eastwest;part=1;" connectable="0" vertex="1" parent="Al74vmx-wj5vo0OJbYfl-89">
          <mxGeometry width="56" height="30" as="geometry" />
        </mxCell>
        <mxCell id="Al74vmx-wj5vo0OJbYfl-91" value="payment_type" style="shape=partialRectangle;top=0;left=0;right=0;bottom=0;html=1;align=left;verticalAlign=top;fillColor=none;spacingLeft=60;spacingRight=4;whiteSpace=wrap;overflow=hidden;rotatable=0;points=[[0,0.5],[1,0.5]];portConstraint=eastwest;dropTarget=0;" vertex="1" parent="Al74vmx-wj5vo0OJbYfl-88">
          <mxGeometry y="56" width="160" height="26" as="geometry" />
        </mxCell>
        <mxCell id="Al74vmx-wj5vo0OJbYfl-92" value="" style="shape=partialRectangle;top=0;left=0;bottom=0;html=1;fillColor=none;align=left;verticalAlign=top;spacingLeft=4;spacingRight=4;whiteSpace=wrap;overflow=hidden;rotatable=0;points=[];portConstraint=eastwest;part=1;" connectable="0" vertex="1" parent="Al74vmx-wj5vo0OJbYfl-91">
          <mxGeometry width="56" height="26" as="geometry" />
        </mxCell>
        <mxCell id="Al74vmx-wj5vo0OJbYfl-97" value="prescription_items" style="swimlane;html=1;fontStyle=0;childLayout=stackLayout;horizontal=1;startSize=26;fillColor=#e0e0e0;horizontalStack=0;resizeParent=1;resizeLast=0;collapsible=1;marginBottom=0;swimlaneFillColor=#ffffff;align=center;rounded=0;shadow=0;comic=0;labelBackgroundColor=none;strokeWidth=1;fontFamily=Verdana;fontSize=14;movable=1;resizable=1;rotatable=1;deletable=1;editable=1;locked=0;connectable=1;" vertex="1" parent="1">
          <mxGeometry x="-140" y="380" width="260" height="140" as="geometry" />
        </mxCell>
        <mxCell id="Al74vmx-wj5vo0OJbYfl-98" value="prescription_id" style="shape=partialRectangle;top=0;left=0;right=0;bottom=0;html=1;align=left;verticalAlign=middle;fillColor=none;spacingLeft=60;spacingRight=4;whiteSpace=wrap;overflow=hidden;rotatable=0;points=[[0,0.5],[1,0.5]];portConstraint=eastwest;dropTarget=0;fontStyle=5;" vertex="1" parent="Al74vmx-wj5vo0OJbYfl-97">
          <mxGeometry y="26" width="260" height="30" as="geometry" />
        </mxCell>
        <mxCell id="Al74vmx-wj5vo0OJbYfl-99" value="FK" style="shape=partialRectangle;fontStyle=1;top=0;left=0;bottom=0;html=1;fillColor=none;align=left;verticalAlign=middle;spacingLeft=4;spacingRight=4;whiteSpace=wrap;overflow=hidden;rotatable=0;points=[];portConstraint=eastwest;part=1;" connectable="0" vertex="1" parent="Al74vmx-wj5vo0OJbYfl-98">
          <mxGeometry width="56" height="30" as="geometry" />
        </mxCell>
        <mxCell id="Al74vmx-wj5vo0OJbYfl-100" value="medication_id" style="shape=partialRectangle;top=0;left=0;right=0;bottom=1;html=1;align=left;verticalAlign=middle;fillColor=none;spacingLeft=60;spacingRight=4;whiteSpace=wrap;overflow=hidden;rotatable=0;points=[[0,0.5],[1,0.5]];portConstraint=eastwest;dropTarget=0;fontStyle=5;" vertex="1" parent="Al74vmx-wj5vo0OJbYfl-97">
          <mxGeometry y="56" width="260" height="30" as="geometry" />
        </mxCell>
        <mxCell id="Al74vmx-wj5vo0OJbYfl-101" value="FK" style="shape=partialRectangle;fontStyle=1;top=0;left=0;bottom=0;html=1;fillColor=none;align=left;verticalAlign=middle;spacingLeft=4;spacingRight=4;whiteSpace=wrap;overflow=hidden;rotatable=0;points=[];portConstraint=eastwest;part=1;" connectable="0" vertex="1" parent="Al74vmx-wj5vo0OJbYfl-100">
          <mxGeometry width="56" height="30" as="geometry" />
        </mxCell>
        <mxCell id="Al74vmx-wj5vo0OJbYfl-102" value="&lt;div&gt;amount&lt;/div&gt;" style="shape=partialRectangle;top=0;left=0;right=0;bottom=0;html=1;align=left;verticalAlign=top;fillColor=none;spacingLeft=60;spacingRight=4;whiteSpace=wrap;overflow=hidden;rotatable=0;points=[[0,0.5],[1,0.5]];portConstraint=eastwest;dropTarget=0;" vertex="1" parent="Al74vmx-wj5vo0OJbYfl-97">
          <mxGeometry y="86" width="260" height="26" as="geometry" />
        </mxCell>
        <mxCell id="Al74vmx-wj5vo0OJbYfl-103" value="" style="shape=partialRectangle;top=0;left=0;bottom=0;html=1;fillColor=none;align=left;verticalAlign=top;spacingLeft=4;spacingRight=4;whiteSpace=wrap;overflow=hidden;rotatable=0;points=[];portConstraint=eastwest;part=1;" connectable="0" vertex="1" parent="Al74vmx-wj5vo0OJbYfl-102">
          <mxGeometry width="56" height="26" as="geometry" />
        </mxCell>
        <mxCell id="Al74vmx-wj5vo0OJbYfl-106" value="note" style="shape=partialRectangle;top=0;left=0;right=0;bottom=0;html=1;align=left;verticalAlign=top;fillColor=none;spacingLeft=60;spacingRight=4;whiteSpace=wrap;overflow=hidden;rotatable=0;points=[[0,0.5],[1,0.5]];portConstraint=eastwest;dropTarget=0;" vertex="1" parent="Al74vmx-wj5vo0OJbYfl-97">
          <mxGeometry y="112" width="260" height="26" as="geometry" />
        </mxCell>
        <mxCell id="Al74vmx-wj5vo0OJbYfl-107" value="" style="shape=partialRectangle;top=0;left=0;bottom=0;html=1;fillColor=none;align=left;verticalAlign=top;spacingLeft=4;spacingRight=4;whiteSpace=wrap;overflow=hidden;rotatable=0;points=[];portConstraint=eastwest;part=1;" connectable="0" vertex="1" parent="Al74vmx-wj5vo0OJbYfl-106">
          <mxGeometry width="56" height="26" as="geometry" />
        </mxCell>
        <mxCell id="Al74vmx-wj5vo0OJbYfl-114" value="medication" style="swimlane;html=1;fontStyle=0;childLayout=stackLayout;horizontal=1;startSize=26;fillColor=#e0e0e0;horizontalStack=0;resizeParent=1;resizeLast=0;collapsible=1;marginBottom=0;swimlaneFillColor=#ffffff;align=center;rounded=0;shadow=0;comic=0;labelBackgroundColor=none;strokeWidth=1;fontFamily=Verdana;fontSize=14;movable=1;resizable=1;rotatable=1;deletable=1;editable=1;locked=0;connectable=1;" vertex="1" parent="1">
          <mxGeometry x="180" y="600" width="270" height="170" as="geometry" />
        </mxCell>
        <mxCell id="Al74vmx-wj5vo0OJbYfl-115" value="medication_id" style="shape=partialRectangle;top=0;left=0;right=0;bottom=0;html=1;align=left;verticalAlign=middle;fillColor=none;spacingLeft=60;spacingRight=4;whiteSpace=wrap;overflow=hidden;rotatable=0;points=[[0,0.5],[1,0.5]];portConstraint=eastwest;dropTarget=0;fontStyle=5;" vertex="1" parent="Al74vmx-wj5vo0OJbYfl-114">
          <mxGeometry y="26" width="270" height="30" as="geometry" />
        </mxCell>
        <mxCell id="Al74vmx-wj5vo0OJbYfl-116" value="PK" style="shape=partialRectangle;fontStyle=1;top=0;left=0;bottom=0;html=1;fillColor=none;align=left;verticalAlign=middle;spacingLeft=4;spacingRight=4;whiteSpace=wrap;overflow=hidden;rotatable=0;points=[];portConstraint=eastwest;part=1;" connectable="0" vertex="1" parent="Al74vmx-wj5vo0OJbYfl-115">
          <mxGeometry width="56" height="30" as="geometry" />
        </mxCell>
        <mxCell id="Al74vmx-wj5vo0OJbYfl-117" value="medication_type_id" style="shape=partialRectangle;top=0;left=0;right=0;bottom=1;html=1;align=left;verticalAlign=middle;fillColor=none;spacingLeft=60;spacingRight=4;whiteSpace=wrap;overflow=hidden;rotatable=0;points=[[0,0.5],[1,0.5]];portConstraint=eastwest;dropTarget=0;fontStyle=5;" vertex="1" parent="Al74vmx-wj5vo0OJbYfl-114">
          <mxGeometry y="56" width="270" height="30" as="geometry" />
        </mxCell>
        <mxCell id="Al74vmx-wj5vo0OJbYfl-118" value="FK" style="shape=partialRectangle;fontStyle=1;top=0;left=0;bottom=0;html=1;fillColor=none;align=left;verticalAlign=middle;spacingLeft=4;spacingRight=4;whiteSpace=wrap;overflow=hidden;rotatable=0;points=[];portConstraint=eastwest;part=1;" connectable="0" vertex="1" parent="Al74vmx-wj5vo0OJbYfl-117">
          <mxGeometry width="56" height="30" as="geometry" />
        </mxCell>
        <mxCell id="Al74vmx-wj5vo0OJbYfl-119" value="&lt;div&gt;mediaction_name&lt;/div&gt;" style="shape=partialRectangle;top=0;left=0;right=0;bottom=0;html=1;align=left;verticalAlign=top;fillColor=none;spacingLeft=60;spacingRight=4;whiteSpace=wrap;overflow=hidden;rotatable=0;points=[[0,0.5],[1,0.5]];portConstraint=eastwest;dropTarget=0;" vertex="1" parent="Al74vmx-wj5vo0OJbYfl-114">
          <mxGeometry y="86" width="270" height="26" as="geometry" />
        </mxCell>
        <mxCell id="Al74vmx-wj5vo0OJbYfl-120" value="" style="shape=partialRectangle;top=0;left=0;bottom=0;html=1;fillColor=none;align=left;verticalAlign=top;spacingLeft=4;spacingRight=4;whiteSpace=wrap;overflow=hidden;rotatable=0;points=[];portConstraint=eastwest;part=1;" connectable="0" vertex="1" parent="Al74vmx-wj5vo0OJbYfl-119">
          <mxGeometry width="56" height="26" as="geometry" />
        </mxCell>
        <mxCell id="Al74vmx-wj5vo0OJbYfl-123" value="medication_code" style="shape=partialRectangle;top=0;left=0;right=0;bottom=0;html=1;align=left;verticalAlign=top;fillColor=none;spacingLeft=60;spacingRight=4;whiteSpace=wrap;overflow=hidden;rotatable=0;points=[[0,0.5],[1,0.5]];portConstraint=eastwest;dropTarget=0;" vertex="1" parent="Al74vmx-wj5vo0OJbYfl-114">
          <mxGeometry y="112" width="270" height="26" as="geometry" />
        </mxCell>
        <mxCell id="Al74vmx-wj5vo0OJbYfl-124" value="" style="shape=partialRectangle;top=0;left=0;bottom=0;html=1;fillColor=none;align=left;verticalAlign=top;spacingLeft=4;spacingRight=4;whiteSpace=wrap;overflow=hidden;rotatable=0;points=[];portConstraint=eastwest;part=1;" connectable="0" vertex="1" parent="Al74vmx-wj5vo0OJbYfl-123">
          <mxGeometry width="56" height="26" as="geometry" />
        </mxCell>
        <mxCell id="Al74vmx-wj5vo0OJbYfl-121" value="mediaction_price" style="shape=partialRectangle;top=0;left=0;right=0;bottom=0;html=1;align=left;verticalAlign=top;fillColor=none;spacingLeft=60;spacingRight=4;whiteSpace=wrap;overflow=hidden;rotatable=0;points=[[0,0.5],[1,0.5]];portConstraint=eastwest;dropTarget=0;" vertex="1" parent="Al74vmx-wj5vo0OJbYfl-114">
          <mxGeometry y="138" width="270" height="28" as="geometry" />
        </mxCell>
        <mxCell id="Al74vmx-wj5vo0OJbYfl-122" value="" style="shape=partialRectangle;top=0;left=0;bottom=0;html=1;fillColor=none;align=left;verticalAlign=top;spacingLeft=4;spacingRight=4;whiteSpace=wrap;overflow=hidden;rotatable=0;points=[];portConstraint=eastwest;part=1;" connectable="0" vertex="1" parent="Al74vmx-wj5vo0OJbYfl-121">
          <mxGeometry width="56" height="28" as="geometry" />
        </mxCell>
        <mxCell id="Al74vmx-wj5vo0OJbYfl-131" value="medication_type" style="swimlane;html=1;fontStyle=0;childLayout=stackLayout;horizontal=1;startSize=26;fillColor=#e0e0e0;horizontalStack=0;resizeParent=1;resizeLast=0;collapsible=1;marginBottom=0;swimlaneFillColor=#ffffff;align=center;rounded=0;shadow=0;comic=0;labelBackgroundColor=none;strokeWidth=1;fontFamily=Verdana;fontSize=14;movable=1;resizable=1;rotatable=1;deletable=1;editable=1;locked=0;connectable=1;" vertex="1" parent="1">
          <mxGeometry x="-150" y="630" width="210" height="82" as="geometry" />
        </mxCell>
        <mxCell id="Al74vmx-wj5vo0OJbYfl-132" value="medication_type_id" style="shape=partialRectangle;top=0;left=0;right=0;bottom=1;html=1;align=left;verticalAlign=middle;fillColor=none;spacingLeft=60;spacingRight=4;whiteSpace=wrap;overflow=hidden;rotatable=0;points=[[0,0.5],[1,0.5]];portConstraint=eastwest;dropTarget=0;fontStyle=5;" vertex="1" parent="Al74vmx-wj5vo0OJbYfl-131">
          <mxGeometry y="26" width="210" height="30" as="geometry" />
        </mxCell>
        <mxCell id="Al74vmx-wj5vo0OJbYfl-133" value="PK" style="shape=partialRectangle;fontStyle=1;top=0;left=0;bottom=0;html=1;fillColor=none;align=left;verticalAlign=middle;spacingLeft=4;spacingRight=4;whiteSpace=wrap;overflow=hidden;rotatable=0;points=[];portConstraint=eastwest;part=1;" connectable="0" vertex="1" parent="Al74vmx-wj5vo0OJbYfl-132">
          <mxGeometry width="56" height="30" as="geometry" />
        </mxCell>
        <mxCell id="Al74vmx-wj5vo0OJbYfl-134" value="medication_type_category" style="shape=partialRectangle;top=0;left=0;right=0;bottom=0;html=1;align=left;verticalAlign=top;fillColor=none;spacingLeft=60;spacingRight=4;whiteSpace=wrap;overflow=hidden;rotatable=0;points=[[0,0.5],[1,0.5]];portConstraint=eastwest;dropTarget=0;" vertex="1" parent="Al74vmx-wj5vo0OJbYfl-131">
          <mxGeometry y="56" width="210" height="26" as="geometry" />
        </mxCell>
        <mxCell id="Al74vmx-wj5vo0OJbYfl-135" value="" style="shape=partialRectangle;top=0;left=0;bottom=0;html=1;fillColor=none;align=left;verticalAlign=top;spacingLeft=4;spacingRight=4;whiteSpace=wrap;overflow=hidden;rotatable=0;points=[];portConstraint=eastwest;part=1;" connectable="0" vertex="1" parent="Al74vmx-wj5vo0OJbYfl-134">
          <mxGeometry width="56" height="26" as="geometry" />
        </mxCell>
        <mxCell id="EFMAcufxA6lLSqX_J2q9-5" value="" style="group" connectable="0" vertex="1" parent="1">
          <mxGeometry x="40" y="40" width="160" height="270" as="geometry" />
        </mxCell>
        <mxCell id="Al74vmx-wj5vo0OJbYfl-1" value="patient" style="swimlane;html=1;fontStyle=0;childLayout=stackLayout;horizontal=1;startSize=26;fillColor=#e0e0e0;horizontalStack=0;resizeParent=1;resizeLast=0;collapsible=1;marginBottom=0;swimlaneFillColor=#ffffff;align=center;rounded=0;shadow=0;comic=0;labelBackgroundColor=none;strokeWidth=1;fontFamily=Verdana;fontSize=14;movable=1;resizable=1;rotatable=1;deletable=1;editable=1;locked=0;connectable=1;" vertex="1" parent="EFMAcufxA6lLSqX_J2q9-5">
          <mxGeometry width="160" height="240" as="geometry" />
        </mxCell>
        <mxCell id="Al74vmx-wj5vo0OJbYfl-2" value="patient_id" style="shape=partialRectangle;top=0;left=0;right=0;bottom=0;html=1;align=left;verticalAlign=middle;fillColor=none;spacingLeft=60;spacingRight=4;whiteSpace=wrap;overflow=hidden;rotatable=0;points=[[0,0.5],[1,0.5]];portConstraint=eastwest;dropTarget=0;fontStyle=5;" vertex="1" parent="Al74vmx-wj5vo0OJbYfl-1">
          <mxGeometry y="26" width="160" height="30" as="geometry" />
        </mxCell>
        <mxCell id="Al74vmx-wj5vo0OJbYfl-3" value="PK" style="shape=partialRectangle;fontStyle=1;top=0;left=0;bottom=0;html=1;fillColor=none;align=left;verticalAlign=middle;spacingLeft=4;spacingRight=4;whiteSpace=wrap;overflow=hidden;rotatable=0;points=[];portConstraint=eastwest;part=1;" connectable="0" vertex="1" parent="Al74vmx-wj5vo0OJbYfl-2">
          <mxGeometry width="56" height="30" as="geometry" />
        </mxCell>
        <mxCell id="Al74vmx-wj5vo0OJbYfl-4" value="address_id" style="shape=partialRectangle;top=0;left=0;right=0;bottom=1;html=1;align=left;verticalAlign=middle;fillColor=none;spacingLeft=60;spacingRight=4;whiteSpace=wrap;overflow=hidden;rotatable=0;points=[[0,0.5],[1,0.5]];portConstraint=eastwest;dropTarget=0;fontStyle=5;" vertex="1" parent="Al74vmx-wj5vo0OJbYfl-1">
          <mxGeometry y="56" width="160" height="30" as="geometry" />
        </mxCell>
        <mxCell id="Al74vmx-wj5vo0OJbYfl-5" value="FK" style="shape=partialRectangle;fontStyle=1;top=0;left=0;bottom=0;html=1;fillColor=none;align=left;verticalAlign=middle;spacingLeft=4;spacingRight=4;whiteSpace=wrap;overflow=hidden;rotatable=0;points=[];portConstraint=eastwest;part=1;" connectable="0" vertex="1" parent="Al74vmx-wj5vo0OJbYfl-4">
          <mxGeometry width="56" height="30" as="geometry" />
        </mxCell>
        <mxCell id="Al74vmx-wj5vo0OJbYfl-6" value="&lt;div&gt;NHS_number&lt;br&gt;&lt;/div&gt;" style="shape=partialRectangle;top=0;left=0;right=0;bottom=0;html=1;align=left;verticalAlign=top;fillColor=none;spacingLeft=60;spacingRight=4;whiteSpace=wrap;overflow=hidden;rotatable=0;points=[[0,0.5],[1,0.5]];portConstraint=eastwest;dropTarget=0;" vertex="1" parent="Al74vmx-wj5vo0OJbYfl-1">
          <mxGeometry y="86" width="160" height="26" as="geometry" />
        </mxCell>
        <mxCell id="Al74vmx-wj5vo0OJbYfl-7" value="" style="shape=partialRectangle;top=0;left=0;bottom=0;html=1;fillColor=none;align=left;verticalAlign=top;spacingLeft=4;spacingRight=4;whiteSpace=wrap;overflow=hidden;rotatable=0;points=[];portConstraint=eastwest;part=1;" connectable="0" vertex="1" parent="Al74vmx-wj5vo0OJbYfl-6">
          <mxGeometry width="56" height="26" as="geometry" />
        </mxCell>
        <mxCell id="Al74vmx-wj5vo0OJbYfl-10" value="name" style="shape=partialRectangle;top=0;left=0;right=0;bottom=0;html=1;align=left;verticalAlign=top;fillColor=none;spacingLeft=60;spacingRight=4;whiteSpace=wrap;overflow=hidden;rotatable=0;points=[[0,0.5],[1,0.5]];portConstraint=eastwest;dropTarget=0;" vertex="1" parent="Al74vmx-wj5vo0OJbYfl-1">
          <mxGeometry y="112" width="160" height="26" as="geometry" />
        </mxCell>
        <mxCell id="Al74vmx-wj5vo0OJbYfl-11" value="" style="shape=partialRectangle;top=0;left=0;bottom=0;html=1;fillColor=none;align=left;verticalAlign=top;spacingLeft=4;spacingRight=4;whiteSpace=wrap;overflow=hidden;rotatable=0;points=[];portConstraint=eastwest;part=1;" connectable="0" vertex="1" parent="Al74vmx-wj5vo0OJbYfl-10">
          <mxGeometry width="56" height="26" as="geometry" />
        </mxCell>
        <mxCell id="Al74vmx-wj5vo0OJbYfl-16" value="phone" style="shape=partialRectangle;top=0;left=0;right=0;bottom=0;html=1;align=left;verticalAlign=top;fillColor=none;spacingLeft=60;spacingRight=4;whiteSpace=wrap;overflow=hidden;rotatable=0;points=[[0,0.5],[1,0.5]];portConstraint=eastwest;dropTarget=0;" vertex="1" parent="Al74vmx-wj5vo0OJbYfl-1">
          <mxGeometry y="138" width="160" height="26" as="geometry" />
        </mxCell>
        <mxCell id="Al74vmx-wj5vo0OJbYfl-17" value="" style="shape=partialRectangle;top=0;left=0;bottom=0;html=1;fillColor=none;align=left;verticalAlign=top;spacingLeft=4;spacingRight=4;whiteSpace=wrap;overflow=hidden;rotatable=0;points=[];portConstraint=eastwest;part=1;" connectable="0" vertex="1" parent="Al74vmx-wj5vo0OJbYfl-16">
          <mxGeometry width="56" height="26" as="geometry" />
        </mxCell>
        <mxCell id="Al74vmx-wj5vo0OJbYfl-18" value="email" style="shape=partialRectangle;top=0;left=0;right=0;bottom=0;html=1;align=left;verticalAlign=top;fillColor=none;spacingLeft=60;spacingRight=4;whiteSpace=wrap;overflow=hidden;rotatable=0;points=[[0,0.5],[1,0.5]];portConstraint=eastwest;dropTarget=0;" vertex="1" parent="Al74vmx-wj5vo0OJbYfl-1">
          <mxGeometry y="164" width="160" height="26" as="geometry" />
        </mxCell>
        <mxCell id="Al74vmx-wj5vo0OJbYfl-19" value="" style="shape=partialRectangle;top=0;left=0;bottom=0;html=1;fillColor=none;align=left;verticalAlign=top;spacingLeft=4;spacingRight=4;whiteSpace=wrap;overflow=hidden;rotatable=0;points=[];portConstraint=eastwest;part=1;" connectable="0" vertex="1" parent="Al74vmx-wj5vo0OJbYfl-18">
          <mxGeometry width="56" height="26" as="geometry" />
        </mxCell>
        <mxCell id="Al74vmx-wj5vo0OJbYfl-14" value="" style="shape=partialRectangle;top=0;left=0;right=0;bottom=0;html=1;align=left;verticalAlign=top;fillColor=none;spacingLeft=60;spacingRight=4;whiteSpace=wrap;overflow=hidden;rotatable=0;points=[[0,0.5],[1,0.5]];portConstraint=eastwest;dropTarget=0;" vertex="1" parent="Al74vmx-wj5vo0OJbYfl-1">
          <mxGeometry y="190" width="160" height="26" as="geometry" />
        </mxCell>
        <mxCell id="Al74vmx-wj5vo0OJbYfl-15" value="" style="shape=partialRectangle;top=0;left=0;bottom=0;html=1;fillColor=none;align=left;verticalAlign=top;spacingLeft=4;spacingRight=4;whiteSpace=wrap;overflow=hidden;rotatable=0;points=[];portConstraint=eastwest;part=1;" connectable="0" vertex="1" parent="Al74vmx-wj5vo0OJbYfl-14">
          <mxGeometry width="56" height="26" as="geometry" />
        </mxCell>
        <mxCell id="EFMAcufxA6lLSqX_J2q9-1" value="date_of_birth" style="shape=partialRectangle;top=0;left=0;right=0;bottom=0;html=1;align=left;verticalAlign=top;fillColor=none;spacingLeft=60;spacingRight=4;whiteSpace=wrap;overflow=hidden;rotatable=0;points=[[0,0.5],[1,0.5]];portConstraint=eastwest;dropTarget=0;" vertex="1" parent="EFMAcufxA6lLSqX_J2q9-5">
          <mxGeometry y="188" width="160" height="26" as="geometry" />
        </mxCell>
        <mxCell id="EFMAcufxA6lLSqX_J2q9-2" value="" style="shape=partialRectangle;top=0;left=0;bottom=0;html=1;fillColor=none;align=left;verticalAlign=top;spacingLeft=4;spacingRight=4;whiteSpace=wrap;overflow=hidden;rotatable=0;points=[];portConstraint=eastwest;part=1;" connectable="0" vertex="1" parent="EFMAcufxA6lLSqX_J2q9-1">
          <mxGeometry width="56" height="26" as="geometry" />
        </mxCell>
        <mxCell id="EFMAcufxA6lLSqX_J2q9-3" value="note" style="shape=partialRectangle;top=0;left=0;right=0;bottom=0;html=1;align=left;verticalAlign=top;fillColor=none;spacingLeft=60;spacingRight=4;whiteSpace=wrap;overflow=hidden;rotatable=0;points=[[0,0.5],[1,0.5]];portConstraint=eastwest;dropTarget=0;" vertex="1" parent="EFMAcufxA6lLSqX_J2q9-5">
          <mxGeometry y="210" width="160" height="26" as="geometry" />
        </mxCell>
        <mxCell id="EFMAcufxA6lLSqX_J2q9-4" value="" style="shape=partialRectangle;top=0;left=0;bottom=0;html=1;fillColor=none;align=left;verticalAlign=top;spacingLeft=4;spacingRight=4;whiteSpace=wrap;overflow=hidden;rotatable=0;points=[];portConstraint=eastwest;part=1;" connectable="0" vertex="1" parent="EFMAcufxA6lLSqX_J2q9-3">
          <mxGeometry width="56" height="26" as="geometry" />
        </mxCell>
        <mxCell id="EFMAcufxA6lLSqX_J2q9-6" value="" style="group" connectable="0" vertex="1" parent="1">
          <mxGeometry x="300" y="320" width="290" height="200" as="geometry" />
        </mxCell>
        <mxCell id="Al74vmx-wj5vo0OJbYfl-58" value="prescription" style="swimlane;html=1;fontStyle=0;childLayout=stackLayout;horizontal=1;startSize=26;fillColor=#e0e0e0;horizontalStack=0;resizeParent=1;resizeLast=0;collapsible=1;marginBottom=0;swimlaneFillColor=#ffffff;align=center;rounded=0;shadow=0;comic=0;labelBackgroundColor=none;strokeWidth=1;fontFamily=Verdana;fontSize=14;movable=1;resizable=1;rotatable=1;deletable=1;editable=1;locked=0;connectable=1;" vertex="1" parent="EFMAcufxA6lLSqX_J2q9-6">
          <mxGeometry width="290" height="200" as="geometry" />
        </mxCell>
        <mxCell id="Al74vmx-wj5vo0OJbYfl-59" value="prescription_id" style="shape=partialRectangle;top=0;left=0;right=0;bottom=0;html=1;align=left;verticalAlign=middle;fillColor=none;spacingLeft=60;spacingRight=4;whiteSpace=wrap;overflow=hidden;rotatable=0;points=[[0,0.5],[1,0.5]];portConstraint=eastwest;dropTarget=0;fontStyle=5;" vertex="1" parent="Al74vmx-wj5vo0OJbYfl-58">
          <mxGeometry y="26" width="290" height="30" as="geometry" />
        </mxCell>
        <mxCell id="Al74vmx-wj5vo0OJbYfl-60" value="PK" style="shape=partialRectangle;fontStyle=1;top=0;left=0;bottom=0;html=1;fillColor=none;align=left;verticalAlign=middle;spacingLeft=4;spacingRight=4;whiteSpace=wrap;overflow=hidden;rotatable=0;points=[];portConstraint=eastwest;part=1;" connectable="0" vertex="1" parent="Al74vmx-wj5vo0OJbYfl-59">
          <mxGeometry width="56" height="30" as="geometry" />
        </mxCell>
        <mxCell id="Al74vmx-wj5vo0OJbYfl-61" value="patient_id" style="shape=partialRectangle;top=0;left=0;right=0;bottom=1;html=1;align=left;verticalAlign=middle;fillColor=none;spacingLeft=60;spacingRight=4;whiteSpace=wrap;overflow=hidden;rotatable=0;points=[[0,0.5],[1,0.5]];portConstraint=eastwest;dropTarget=0;fontStyle=5;" vertex="1" parent="Al74vmx-wj5vo0OJbYfl-58">
          <mxGeometry y="56" width="290" height="30" as="geometry" />
        </mxCell>
        <mxCell id="Al74vmx-wj5vo0OJbYfl-62" value="FK" style="shape=partialRectangle;fontStyle=1;top=0;left=0;bottom=0;html=1;fillColor=none;align=left;verticalAlign=middle;spacingLeft=4;spacingRight=4;whiteSpace=wrap;overflow=hidden;rotatable=0;points=[];portConstraint=eastwest;part=1;" connectable="0" vertex="1" parent="Al74vmx-wj5vo0OJbYfl-61">
          <mxGeometry width="56" height="30" as="geometry" />
        </mxCell>
        <mxCell id="Al74vmx-wj5vo0OJbYfl-85" style="shape=partialRectangle;top=0;left=0;right=0;bottom=1;html=1;align=left;verticalAlign=middle;fillColor=none;spacingLeft=60;spacingRight=4;whiteSpace=wrap;overflow=hidden;rotatable=0;points=[[0,0.5],[1,0.5]];portConstraint=eastwest;dropTarget=0;fontStyle=5;" vertex="1" parent="Al74vmx-wj5vo0OJbYfl-58">
          <mxGeometry y="86" width="290" height="30" as="geometry" />
        </mxCell>
        <mxCell id="Al74vmx-wj5vo0OJbYfl-79" style="shape=partialRectangle;top=0;left=0;right=0;bottom=1;html=1;align=left;verticalAlign=middle;fillColor=none;spacingLeft=60;spacingRight=4;whiteSpace=wrap;overflow=hidden;rotatable=0;points=[[0,0.5],[1,0.5]];portConstraint=eastwest;dropTarget=0;fontStyle=5;" vertex="1" parent="Al74vmx-wj5vo0OJbYfl-58">
          <mxGeometry y="116" width="290" height="30" as="geometry" />
        </mxCell>
        <mxCell id="Al74vmx-wj5vo0OJbYfl-63" value="date_order" style="shape=partialRectangle;top=0;left=0;right=0;bottom=0;html=1;align=left;verticalAlign=top;fillColor=none;spacingLeft=60;spacingRight=4;whiteSpace=wrap;overflow=hidden;rotatable=0;points=[[0,0.5],[1,0.5]];portConstraint=eastwest;dropTarget=0;" vertex="1" parent="Al74vmx-wj5vo0OJbYfl-58">
          <mxGeometry y="146" width="290" height="26" as="geometry" />
        </mxCell>
        <mxCell id="Al74vmx-wj5vo0OJbYfl-64" value="" style="shape=partialRectangle;top=0;left=0;bottom=0;html=1;fillColor=none;align=left;verticalAlign=top;spacingLeft=4;spacingRight=4;whiteSpace=wrap;overflow=hidden;rotatable=0;points=[];portConstraint=eastwest;part=1;" connectable="0" vertex="1" parent="Al74vmx-wj5vo0OJbYfl-63">
          <mxGeometry width="56" height="26" as="geometry" />
        </mxCell>
        <mxCell id="Al74vmx-wj5vo0OJbYfl-65" value="date_payment" style="shape=partialRectangle;top=0;left=0;right=0;bottom=0;html=1;align=left;verticalAlign=top;fillColor=none;spacingLeft=60;spacingRight=4;whiteSpace=wrap;overflow=hidden;rotatable=0;points=[[0,0.5],[1,0.5]];portConstraint=eastwest;dropTarget=0;" vertex="1" parent="Al74vmx-wj5vo0OJbYfl-58">
          <mxGeometry y="172" width="290" height="26" as="geometry" />
        </mxCell>
        <mxCell id="Al74vmx-wj5vo0OJbYfl-66" value="" style="shape=partialRectangle;top=0;left=0;bottom=0;html=1;fillColor=none;align=left;verticalAlign=top;spacingLeft=4;spacingRight=4;whiteSpace=wrap;overflow=hidden;rotatable=0;points=[];portConstraint=eastwest;part=1;" connectable="0" vertex="1" parent="Al74vmx-wj5vo0OJbYfl-65">
          <mxGeometry width="56" height="26" as="geometry" />
        </mxCell>
        <mxCell id="Al74vmx-wj5vo0OJbYfl-80" value="doctor_id" style="shape=partialRectangle;top=0;left=0;right=0;bottom=1;html=1;align=left;verticalAlign=middle;fillColor=none;spacingLeft=60;spacingRight=4;whiteSpace=wrap;overflow=hidden;rotatable=0;points=[[0,0.5],[1,0.5]];portConstraint=eastwest;dropTarget=0;fontStyle=5;" vertex="1" parent="EFMAcufxA6lLSqX_J2q9-6">
          <mxGeometry y="86" width="290" height="30" as="geometry" />
        </mxCell>
        <mxCell id="Al74vmx-wj5vo0OJbYfl-81" value="FK" style="shape=partialRectangle;fontStyle=1;top=0;left=0;bottom=0;html=1;fillColor=none;align=left;verticalAlign=middle;spacingLeft=4;spacingRight=4;whiteSpace=wrap;overflow=hidden;rotatable=0;points=[];portConstraint=eastwest;part=1;" connectable="0" vertex="1" parent="Al74vmx-wj5vo0OJbYfl-80">
          <mxGeometry width="56" height="30" as="geometry" />
        </mxCell>
        <mxCell id="Al74vmx-wj5vo0OJbYfl-86" value="payment_id" style="shape=partialRectangle;top=0;left=0;right=0;bottom=1;html=1;align=left;verticalAlign=middle;fillColor=none;spacingLeft=60;spacingRight=4;whiteSpace=wrap;overflow=hidden;rotatable=0;points=[[0,0.5],[1,0.5]];portConstraint=eastwest;dropTarget=0;fontStyle=5;" vertex="1" parent="EFMAcufxA6lLSqX_J2q9-6">
          <mxGeometry y="116" width="290" height="30" as="geometry" />
        </mxCell>
        <mxCell id="Al74vmx-wj5vo0OJbYfl-87" value="FK" style="shape=partialRectangle;fontStyle=1;top=0;left=0;bottom=0;html=1;fillColor=none;align=left;verticalAlign=middle;spacingLeft=4;spacingRight=4;whiteSpace=wrap;overflow=hidden;rotatable=0;points=[];portConstraint=eastwest;part=1;" connectable="0" vertex="1" parent="Al74vmx-wj5vo0OJbYfl-86">
          <mxGeometry width="56" height="30" as="geometry" />
        </mxCell>
        <mxCell id="EFMAcufxA6lLSqX_J2q9-8" value="" style="endArrow=classic;startArrow=classic;html=1;rounded=0;exitX=1;exitY=0.5;exitDx=0;exitDy=0;entryX=0;entryY=0.5;entryDx=0;entryDy=0;" edge="1" parent="1" source="Al74vmx-wj5vo0OJbYfl-4" target="Al74vmx-wj5vo0OJbYfl-23">
          <mxGeometry width="50" height="50" relative="1" as="geometry">
            <mxPoint x="720" y="420" as="sourcePoint" />
            <mxPoint x="770" y="370" as="targetPoint" />
            <Array as="points">
              <mxPoint x="290" y="111" />
              <mxPoint x="290" y="81" />
            </Array>
          </mxGeometry>
        </mxCell>
        <mxCell id="EFMAcufxA6lLSqX_J2q9-9" value="" style="endArrow=classic;startArrow=classic;html=1;rounded=0;exitX=1;exitY=0.5;exitDx=0;exitDy=0;entryX=0;entryY=0.5;entryDx=0;entryDy=0;" edge="1" parent="1" source="Al74vmx-wj5vo0OJbYfl-23" target="Al74vmx-wj5vo0OJbYfl-42">
          <mxGeometry width="50" height="50" relative="1" as="geometry">
            <mxPoint x="530" y="290" as="sourcePoint" />
            <mxPoint x="580" y="240" as="targetPoint" />
            <Array as="points">
              <mxPoint x="600" y="80" />
              <mxPoint x="600" y="111" />
            </Array>
          </mxGeometry>
        </mxCell>
        <mxCell id="EFMAcufxA6lLSqX_J2q9-10" value="" style="endArrow=classic;html=1;rounded=0;exitX=1;exitY=0.5;exitDx=0;exitDy=0;entryX=1;entryY=0.5;entryDx=0;entryDy=0;" edge="1" parent="1" source="Al74vmx-wj5vo0OJbYfl-40" target="Al74vmx-wj5vo0OJbYfl-80">
          <mxGeometry width="50" height="50" relative="1" as="geometry">
            <mxPoint x="540" y="320" as="sourcePoint" />
            <mxPoint x="630" y="300" as="targetPoint" />
            <Array as="points">
              <mxPoint x="910" y="81" />
              <mxPoint x="910" y="421" />
            </Array>
          </mxGeometry>
        </mxCell>
        <mxCell id="EFMAcufxA6lLSqX_J2q9-11" value="" style="endArrow=classic;html=1;rounded=0;exitX=0;exitY=0.5;exitDx=0;exitDy=0;entryX=0;entryY=0.5;entryDx=0;entryDy=0;" edge="1" parent="1" source="Al74vmx-wj5vo0OJbYfl-2" target="Al74vmx-wj5vo0OJbYfl-61">
          <mxGeometry width="50" height="50" relative="1" as="geometry">
            <mxPoint x="380" y="370" as="sourcePoint" />
            <mxPoint x="430" y="320" as="targetPoint" />
            <Array as="points">
              <mxPoint x="-50" y="81" />
              <mxPoint x="-50" y="350" />
              <mxPoint x="190" y="350" />
              <mxPoint x="190" y="391" />
            </Array>
          </mxGeometry>
        </mxCell>
        <mxCell id="EFMAcufxA6lLSqX_J2q9-14" value="" style="endArrow=classic;html=1;rounded=0;exitX=0;exitY=0.5;exitDx=0;exitDy=0;entryX=1;entryY=0.5;entryDx=0;entryDy=0;" edge="1" parent="1" source="Al74vmx-wj5vo0OJbYfl-89" target="Al74vmx-wj5vo0OJbYfl-86">
          <mxGeometry width="50" height="50" relative="1" as="geometry">
            <mxPoint x="460" y="460" as="sourcePoint" />
            <mxPoint x="590" y="460" as="targetPoint" />
            <Array as="points">
              <mxPoint x="660" y="511" />
              <mxPoint x="660" y="451" />
            </Array>
          </mxGeometry>
        </mxCell>
        <mxCell id="EFMAcufxA6lLSqX_J2q9-15" value="" style="endArrow=classic;html=1;rounded=0;exitX=0;exitY=0.5;exitDx=0;exitDy=0;entryX=1;entryY=0.5;entryDx=0;entryDy=0;" edge="1" parent="1" source="Al74vmx-wj5vo0OJbYfl-59" target="Al74vmx-wj5vo0OJbYfl-98">
          <mxGeometry width="50" height="50" relative="1" as="geometry">
            <mxPoint x="400" y="460" as="sourcePoint" />
            <mxPoint x="450" y="410" as="targetPoint" />
            <Array as="points">
              <mxPoint x="230" y="361" />
              <mxPoint x="230" y="421" />
            </Array>
          </mxGeometry>
        </mxCell>
        <mxCell id="EFMAcufxA6lLSqX_J2q9-16" value="" style="endArrow=classic;html=1;rounded=0;exitX=0;exitY=0.5;exitDx=0;exitDy=0;entryX=1;entryY=0.5;entryDx=0;entryDy=0;" edge="1" parent="1" source="Al74vmx-wj5vo0OJbYfl-115" target="Al74vmx-wj5vo0OJbYfl-100">
          <mxGeometry width="50" height="50" relative="1" as="geometry">
            <mxPoint x="170" y="560" as="sourcePoint" />
            <mxPoint x="220" y="510" as="targetPoint" />
            <Array as="points">
              <mxPoint x="160" y="641" />
              <mxPoint x="160" y="451" />
            </Array>
          </mxGeometry>
        </mxCell>
        <mxCell id="EFMAcufxA6lLSqX_J2q9-17" value="" style="endArrow=classic;html=1;rounded=0;exitX=1;exitY=0.5;exitDx=0;exitDy=0;entryX=0;entryY=0.5;entryDx=0;entryDy=0;" edge="1" parent="1" source="Al74vmx-wj5vo0OJbYfl-132" target="Al74vmx-wj5vo0OJbYfl-117">
          <mxGeometry width="50" height="50" relative="1" as="geometry">
            <mxPoint x="170" y="650" as="sourcePoint" />
            <mxPoint x="220" y="600" as="targetPoint" />
          </mxGeometry>
        </mxCell>
        <mxCell id="--WzUbKTdLhKd40m-pF3-1" value="address_line_2" style="shape=partialRectangle;top=0;left=0;right=0;bottom=0;html=1;align=left;verticalAlign=top;fillColor=none;spacingLeft=60;spacingRight=4;whiteSpace=wrap;overflow=hidden;rotatable=0;points=[[0,0.5],[1,0.5]];portConstraint=eastwest;dropTarget=0;" vertex="1" parent="1">
          <mxGeometry x="365" y="173" width="160" height="26" as="geometry" />
        </mxCell>
        <mxCell id="--WzUbKTdLhKd40m-pF3-2" value="" style="shape=partialRectangle;top=0;left=0;bottom=0;html=1;fillColor=none;align=left;verticalAlign=top;spacingLeft=4;spacingRight=4;whiteSpace=wrap;overflow=hidden;rotatable=0;points=[];portConstraint=eastwest;part=1;" connectable="0" vertex="1" parent="--WzUbKTdLhKd40m-pF3-1">
          <mxGeometry width="56" height="26" as="geometry" />
        </mxCell>
        <mxCell id="--WzUbKTdLhKd40m-pF3-3" value="postcode" style="shape=partialRectangle;top=0;left=0;right=0;bottom=0;html=1;align=left;verticalAlign=top;fillColor=none;spacingLeft=60;spacingRight=4;whiteSpace=wrap;overflow=hidden;rotatable=0;points=[[0,0.5],[1,0.5]];portConstraint=eastwest;dropTarget=0;" vertex="1" parent="1">
          <mxGeometry x="365" y="199" width="160" height="31" as="geometry" />
        </mxCell>
        <mxCell id="--WzUbKTdLhKd40m-pF3-4" value="" style="shape=partialRectangle;top=0;left=0;bottom=0;html=1;fillColor=none;align=left;verticalAlign=top;spacingLeft=4;spacingRight=4;whiteSpace=wrap;overflow=hidden;rotatable=0;points=[];portConstraint=eastwest;part=1;" connectable="0" vertex="1" parent="--WzUbKTdLhKd40m-pF3-3">
          <mxGeometry width="56" height="31" as="geometry" />
        </mxCell>
      </root>
    </mxGraphModel>
  </diagram>
</mxfile>
